<?xml version="1.0" encoding="utf-8"?>
<?xml-stylesheet type="text/xsl" href="rss1.xsl"?>
<rss version="2.0" xmlns:atom="http://www.w3.org/2005/Atom" xmlns:content="http://purl.org/rss/1.0/modules/content/" xmlns:dc="http://purl.org/dc/elements/1.1/" xmlns:media="http://search.yahoo.com/mrss/">
<channel>
 <title>Getty</title>
 <link>http://www.gettyimg.com/</link>
 <atom:link href="http://www.gettyimg.com/" rel="self" type="application/rss+xml" />

 
                <item>
                <title><![CDATA[【Requests】[REQ AUD] - Levante - Canzone d'estate [iTunes Plus M4A]]]></title>
                <link><![CDATA[https://sharemania.us/threads/levante-canzone-destate-itunes-plus-m4a.223437/]]></link>
                <description><![CDATA[<article>
<blockquote class="messageText SelectQuoteContainer ugc baseHtml">
I'm looking for <b><i>Levante - Canzone d'estate </i></b>from iTunes in *.m4a format<br>
<a href="https://music.apple.com/it/album/canzone-destate-single/1692757182" target="_blank" class="externalLink" rel="nofollow">https://music.apple.com/it/album/canzone-destate-single/1692757182</a><br>
<br>
Thanks to anyone who's willing to help me <img src="styles/default/xenforo/smilies/big_smile-48.png" class="mceSmilie" alt=":)" title="Smile    :)">
<div class="messageTextEndMarker">&nbsp;</div>
</blockquote>
</article>]]></description>
                <author><![CDATA[Andromeda]]></author>
                </item>

                
                <item>
                <title><![CDATA[【HD Live Performances】FEED - Elton John - Glastonbury Festival FEED 25.06.2023 1080i H264 4.2.2 MPA-TSS]]></title>
                <link><![CDATA[https://sharemania.us/threads/elton-john-glastonbury-festival-feed-25-06-2023-1080i-h264-4-2-2-mpa-tss.223435/]]></link>
                <description><![CDATA[<article>
<blockquote class="messageText SelectQuoteContainer ugc baseHtml">
<img src="https://i.imgur.com/iEtL0SP.png" class="bbCodeImage LbImage" alt="[​IMG]" data-url="https://i.imgur.com/iEtL0SP.png" style=""> <br>
<br>
<div style="text-align: center">Setlist:​</div><i><div style="text-align: center"><i>Pinball Wizard</i> <i>(The Who cover) <br>
The Bitch Is Back<br>
Bennie and the Jets<br>
Daniel<br>
Goodbye Yellow Brick Road<br>
I Guess That's Why They Call It the Blues<br>
Philadelphia Freedom<br>
Are You Ready for Love</i> (with Jacob Lusk &amp; London Community Gospel Choir)<br>
<i>Sad Songs (Say So Much)</i> (with London Community Gospel Choir)<br>
<i>Someone Saved My Life Tonight<br>
Until I Found You (Stephen Sanchez cover) </i>(with Stephen Sanchez)<br>
<i>Your Song<br>
Candle in the Wind <br>
Tiny Dancer</i> (with Brandon Flowers)<br>
<i>Don't Go Breaking My Heart (Elton John &amp; Kiki Dee cover)</i> (with Rina Sawayama)<br>
<i>Crocodile Rock<br>
Saturday Night's Alright for Fighting<br>
I'm Still Standing<br>
Cold Heart<br>
Don't Let the Sun Go Down on Me</i> (George Michael tribute)<br>
<i>Rocket Man (I Think It's Going to Be a Long, Long Time)</i>​</div></i><br>
<br>
<br>
<div class="ToggleTriggerAnchor bbCodeSpoilerContainer">
<button type="button" class="button bbCodeSpoilerButton ToggleTrigger Tooltip JsOnly" data-target="> .SpoilerTarget"><span>Spoiler: <span class="SpoilerTitle">Media Info</span></span></button>
<div class="SpoilerTarget bbCodeSpoilerText">General<br>
ID : 1 (0x1)<br>
Complete name : D:\Records\Elton John - Glastonbury Festival FEED 25.06.2023 1080i H264 4.2.2 MPA.ts<br>
Format : MPEG-TS<br>
File size : 24.8 GiB<br>
Duration : 2 h 1 min<br>
Overall bit rate mode : Variable<br>
Overall bit rate : 29.3 Mb/s<br>
Video<br>
ID : 100 (0x64)<br>
Menu ID : 1 (0x1)<br>
Format : AVC<br>
Format/Info : Advanced Video Codec<br>
Format profile : High 4:2:2@L5.1<br>
Format settings : CABAC / 2 Ref Frames<br>
Format settings, CABAC : Yes<br>
Format settings, Reference frames : 2 frames<br>
Codec ID : 27<br>
Duration : 2 h 1 min<br>
Bit rate : 27.6 Mb/s<br>
Width : 1 920 pixels<br>
Height : 1 080 pixels<br>
Display aspect ratio : 16:9<br>
Frame rate : 25.000 FPS<br>
Color space : YUV<br>
Chroma subsampling : 4:2:2<br>
Bit depth : 8 bits<br>
Scan type : Interlaced<br>
Scan type, store method : Separated fields<br>
Scan order : Top Field First<br>
Bits/(Pixel*Frame) : 0.533<br>
Stream size : 23.4 GiB (94%)<br>
Color range : Limited<br>
Color primaries : BT.709<br>
Transfer characteristics : BT.709<br>
Matrix coefficients : BT.709<br>
Audio<br>
ID : 200 (0xC8)<br>
Menu ID : 1 (0x1)<br>
Format : MPEG Audio<br>
Format version : Version 1<br>
Format profile : Layer 2<br>
Codec ID : 3<br>
Duration : 2 h 1 min<br>
Bit rate mode : Constant<br>
Bit rate : 256 kb/s<br>
Channel(s) : 2 channels<br>
Sampling rate : 48.0 kHz<br>
Frame rate : 41.667 FPS (1152 SPF)<br>
Compression mode : Lossy<br>
Delay relative to video : 6 ms<br>
Stream size : 222 MiB (1%)<br>
Language : det<br>
Language, more info : Clean effects</div>
</div><br>
Download link<br>
<div class="bbCodeBlock bbCodeVfcHH HiddenContent">
<div class="attribution type">Hidden Content:</div>
<blockquote>You must reply before you can see the hidden data contained here.</blockquote>
</div>
<div class="messageTextEndMarker">&nbsp;</div>
</blockquote>
</article>]]></description>
                <author><![CDATA[theslothsidd]]></author>
                </item>

                
                <item>
                <title><![CDATA[【HD Live Performances】HDTV - Elton John - Live @ Glastonbury 2023 HDTV H264 1080i DD2.0-ilya2129]]></title>
                <link><![CDATA[https://sharemania.us/threads/elton-john-live-glastonbury-2023-hdtv-h264-1080i-dd2-0-ilya2129.223436/]]></link>
                <description><![CDATA[<article>
<blockquote class="messageText SelectQuoteContainer ugc baseHtml">
<div style="text-align: center"><img src="https://i122.fastpic.org/big/2023/0623/b4/b37c6294354538a70aac338bdf3af5b4.png?r=1" class="bbCodeImage LbImage" alt="[​IMG]" data-url="https://i122.fastpic.org/big/2023/0623/b4/b37c6294354538a70aac338bdf3af5b4.png?r=1" style=""><br>
<br>
<a href="https://postimg.cc/FYG89bMz" target="_blank" class="externalLink" rel="nofollow"><img src="https://i.postimg.cc/FYG89bMz/vlcsnap-2023-06-26-11h02m32s299.png" class="bbCodeImage LbImage" alt="[​IMG]" data-url="https://i.postimg.cc/FYG89bMz/vlcsnap-2023-06-26-11h02m32s299.png"></a> <a href="https://postimg.cc/RqfY3xkj" target="_blank" class="externalLink" rel="nofollow"><img src="https://i.postimg.cc/RqfY3xkj/vlcsnap-2023-06-26-11h02m36s516.png" class="bbCodeImage LbImage" alt="[​IMG]" data-url="https://i.postimg.cc/RqfY3xkj/vlcsnap-2023-06-26-11h02m36s516.png"></a> <a href="https://postimg.cc/SY0tZgMT" target="_blank" class="externalLink" rel="nofollow"><img src="https://i.postimg.cc/SY0tZgMT/vlcsnap-2023-06-26-11h02m39s230.png" class="bbCodeImage LbImage" alt="[​IMG]" data-url="https://i.postimg.cc/SY0tZgMT/vlcsnap-2023-06-26-11h02m39s230.png"></a> <a href="https://postimg.cc/vxW2C57Q" target="_blank" class="externalLink" rel="nofollow"><img src="https://i.postimg.cc/vxW2C57Q/vlcsnap-2023-06-26-11h02m45s008.png" class="bbCodeImage LbImage" alt="[​IMG]" data-url="https://i.postimg.cc/vxW2C57Q/vlcsnap-2023-06-26-11h02m45s008.png"></a> <a href="https://postimg.cc/2qKtWk8f" target="_blank" class="externalLink" rel="nofollow"><img src="https://i.postimg.cc/2qKtWk8f/vlcsnap-2023-06-26-11h02m52s278.png" class="bbCodeImage LbImage" alt="[​IMG]" data-url="https://i.postimg.cc/2qKtWk8f/vlcsnap-2023-06-26-11h02m52s278.png"></a> <br>
<br>
<i><br>
Pinball Wizard (The Who cover) (First time since 2009)<br>
The Bitch Is Back<br>
Bennie and the Jets<br>
Daniel<br>
Goodbye Yellow Brick Road<br>
I Guess That's Why They Call It the Blues<br>
Philadelphia Freedom<br>
Are You Ready for Love (with Jacob Lusk) <br>
Sad Songs (Say So Much) (with London Community Gospel Choir)<br>
Someone Saved My Life Tonight<br>
Until I Found You (Stephen Sanchez cover) (with Stephen Sanchez)<br>
Your Song<br>
Candle in the Wind<br>
Tiny Dancer (with Brandon Flowers)<br>
Don't Go Breaking My Heart (Elton John &amp; Kiki Dee cover) (with Rina Sawayama)<br>
Crocodile Rock<br>
Saturday Night's Alright for Fighting<br>
I'm Still Standing<br>
Cold Heart<br>
Don't Let the Sun Go Down on Me (Dedicated to George Michael )<br>
Rocket Man (I Think It's Going to Be a Long, Long Time) (Extended outro)<br>
</i><br>
​</div><br>
<div class="bbCodeBlock bbCodeCode">
<div class="type">Code:</div>
<pre>General
ID                                       : 1 (0x1)
Complete name                            : D:\Elton John - Live @ Glastonbury 2023 HDTV H264 1080i DD2.0-ilya2129.ts
Format                                   : MPEG-TS
File size                                : 6.11 GiB
Duration                                 : 2 h 0 min
Overall bit rate mode                    : Variable
Overall bit rate                         : 7 276 kb/s
Frame rate                               : 25.000 FPS

Video
ID                                       : 302 (0x12E)
Menu ID                                  : 1 (0x1)
Format                                   : AVC
Format/Info                              : Advanced Video Codec
Format profile                           : High@L4
Format settings                          : CABAC / 4 Ref Frames
Format settings, CABAC                   : Yes
Format settings, Reference frames        : 4 frames
Codec ID                                 : 27
Duration                                 : 2 h 0 min
Bit rate                                 : 6 723 kb/s
Width                                    : 1 920 pixels
Height                                   : 1 080 pixels
Display aspect ratio                     : 16:9
Frame rate                               : 25.000 FPS
Standard                                 : Component
Color space                              : YUV
Chroma subsampling                       : 4:2:0
Bit depth                                : 8 bits
Scan type                                : MBAFF
Scan type, store method                  : Interleaved fields
Scan order                               : Top Field First
Bits/(Pixel*Frame)                       : 0.130
Stream size                              : 5.64 GiB (92%)
Color range                              : Limited
Color primaries                          : BT.709
Transfer characteristics                 : BT.709
Matrix coefficients                      : BT.709

Audio
ID                                       : 303 (0x12F)
Menu ID                                  : 1 (0x1)
Format                                   : AC-3
Format/Info                              : Audio Coding 3
Commercial name                          : Dolby Digital
Codec ID                                 : 6
Duration                                 : 2 h 0 min
Bit rate mode                            : Constant
Bit rate                                 : 192 kb/s
Channel(s)                               : 2 channels
Channel layout                           : L R
Sampling rate                            : 48.0 kHz
Frame rate                               : 31.250 FPS (1536 SPF)
Compression mode                         : Lossy
Delay relative to video                  : -160 ms
Stream size                              : 165 MiB (3%)
Language                                 : English
Service kind                             : Complete Main

Text #1
ID                                       : 310 (0x136)-888
Menu ID                                  : 1 (0x1)
Format                                   : Teletext Subtitle
Language                                 : English
Language, more info                      : For hearing impaired people

Text #2
ID                                       : 2403 (0x963)
Menu ID                                  : 1 (0x1)
Format                                   : DVB Subtitle
Codec ID                                 : 6
Duration                                 : 1 h 59 min
Delay relative to video                  : 2 s 313 ms
Language                                 : English
</pre>
</div>
<div class="bbCodeBlock bbCodeVfcHH HiddenContent">
<div class="attribution type">Hidden Content:</div>
<blockquote>You must reply before you can see the hidden data contained here.</blockquote>
</div>
<div class="messageTextEndMarker">&nbsp;</div>
</blockquote>
</article>]]></description>
                <author><![CDATA[ilya2129]]></author>
                </item>

                
                <item>
                <title><![CDATA[【HD Live Performances】FEED - Glastonbury Festival FEED 25.06.2023 1080i H264 4.2.2 MPA-TSS]]></title>
                <link><![CDATA[https://sharemania.us/threads/glastonbury-festival-feed-25-06-2023-1080i-h264-4-2-2-mpa-tss.223434/]]></link>
                <description><![CDATA[<article>
<blockquote class="messageText SelectQuoteContainer ugc baseHtml">
<img src="https://i.imgur.com/XnCXTLw.png" class="bbCodeImage LbImage" alt="[​IMG]" data-url="https://i.imgur.com/XnCXTLw.png" style=""> <br>
<br>
<div class="ToggleTriggerAnchor bbCodeSpoilerContainer">
<button type="button" class="button bbCodeSpoilerButton ToggleTrigger Tooltip JsOnly" data-target="> .SpoilerTarget"><span>Spoiler: <span class="SpoilerTitle">Media Info</span></span></button>
<div class="SpoilerTarget bbCodeSpoilerText">General<br>
ID : 1 (0x1)<br>
Complete name : D:\Records\Glastonbury Festival FEED 25.06.2023 1080i H264 4.2.2 MPA.ts<br>
Format : MPEG-TS<br>
File size : 96.6 GiB<br>
Duration : 7 h 23 min<br>
Overall bit rate mode : Variable<br>
Overall bit rate : 31.2 Mb/s<br>
Network name : BWS Network 1<br>
Video<br>
ID : 100 (0x64)<br>
Menu ID : 1 (0x1)<br>
Format : AVC<br>
Format/Info : Advanced Video Codec<br>
Format profile : High 4:2:2@L5.1<br>
Format settings : CABAC / 2 Ref Frames<br>
Format settings, CABAC : Yes<br>
Format settings, Reference frames : 2 frames<br>
Codec ID : 27<br>
Duration : 7 h 23 min<br>
Bit rate : 29.4 Mb/s<br>
Width : 1 920 pixels<br>
Height : 1 080 pixels<br>
Display aspect ratio : 16:9<br>
Frame rate : 25.000 FPS<br>
Color space : YUV<br>
Chroma subsampling : 4:2:2<br>
Bit depth : 8 bits<br>
Scan type : Interlaced<br>
Scan type, store method : Separated fields<br>
Scan order : Top Field First<br>
Bits/(Pixel*Frame) : 0.567<br>
Stream size : 91.1 GiB (94%)<br>
Color range : Limited<br>
Color primaries : BT.709<br>
Transfer characteristics : BT.709<br>
Matrix coefficients : BT.709<br>
Audio<br>
ID : 200 (0xC8)<br>
Menu ID : 1 (0x1)<br>
Format : MPEG Audio<br>
Format version : Version 1<br>
Format profile : Layer 2<br>
Codec ID : 3<br>
Duration : 7 h 23 min<br>
Bit rate mode : Constant<br>
Bit rate : 256 kb/s<br>
Channel(s) : 2 channels<br>
Sampling rate : 48.0 kHz<br>
Frame rate : 41.667 FPS (1152 SPF)<br>
Compression mode : Lossy<br>
Delay relative to video : -10 ms<br>
Stream size : 813 MiB (1%)</div>
</div><br>
<br>
Download link<br>
<div class="bbCodeBlock bbCodeVfcHH HiddenContent">
<div class="attribution type">Hidden Content:</div>
<blockquote>You must reply before you can see the hidden data contained here.</blockquote>
</div>
<div class="messageTextEndMarker">&nbsp;</div>
</blockquote>
</article>]]></description>
                <author><![CDATA[theslothsidd]]></author>
                </item>

                </channel></rss>